PathFileType	4	(X/Y/Z)	/Users/mathieubourgeois/Desktop/Analyse/Traitement/Sujet_01/Data/Transformed_Sujet_01_velo_80.trc
DataRate	CameraRate	NumFrames	NumMarkers	Units	OrigDataRate	OrigDataStartFrame	OrigNumFrames
120.000000	120.000000	4	35	mm	120.000000	978	1957
Frame#	Time	RFHD			LFHD			RBHD			LBHD			RSHO			LSHO			CLAV			STRN			T10			RBWT			LBWT			RFWT			LFWT			RRAD			RWRA			RWRB			RCAR			RHUM			LHUM			LRAD			LWRA			LWRB			LCAR			RKNI			RKNE			LKNI			LKNE			RANE			RANI			RTOE			RHEE			LTOE			LANI			LANE			LHEE			
		X1	Y1	Z1	X2	Y2	Z2	X3	Y3	Z3	X4	Y4	Z4	X5	Y5	Z5	X6	Y6	Z6	X7	Y7	Z7	X8	Y8	Z8	X9	Y9	Z9	X10	Y10	Z10	X11	Y11	Z11	X12	Y12	Z12	X13	Y13	Z13	X14	Y14	Z14	X15	Y15	Z15	X16	Y16	Z16	X17	Y17	Z17	X18	Y18	Z18	X19	Y19	Z19	X20	Y20	Z20	X21	Y21	Z21	X22	Y22	Z22	X23	Y23	Z23	X24	Y24	Z24	X25	Y25	Z25	X26	Y26	Z26	X27	Y27	Z27	X28	Y28	Z28	X29	Y29	Z29	X30	Y30	Z30	X31	Y31	Z31	X32	Y32	Z32	X33	Y33	Z33	X34	Y34	Z34	X35	Y35	Z35	

979	8.15	139.5836181640624	1513.533935546875	364.4732055664061	165.3873291015625	1517.066650390625	239.7464599609374	-5.536511898040813	1550.380249023438	340.7368164062499	14.69993877410886	1553.860473632812	211.1231079101562	-13.0866556167603	1382.681396484375	369.3545532226562	-2.748888015747089	1377.106323242188	152.2896575927734	8.706959724426236	1312.507934570312	277.9845275878906	-48.76545333862308	1219.810180664062	270.5337829589843	-222.3634643554688	1380.549072265625	275.8554077148437	-415.3267517089844	1104.198974609375	338.2117919921874	-419.5689392089844	1102.1689453125	217.364288330078	-240.742904663086	1069.148681640625	388.217559814453	-240.6136932373047	1078.298828125	163.610122680664	136.3050842285156	1170.615966796875	493.5321655273437	298.1917419433593	1023.285400390625	409.9859619140625	320.8214721679687	1043.49560546875	469.6022033691406	400.5526123046874	1034.987915039062	404.6666870117188	88.35501098632807	1129.9892578125	468.5500793457031	103.3055572509765	1143.10205078125	91.95578002929682	156.5283355712891	1176.671020507812	72.27083587646479	319.1952209472656	1039.058471679688	165.0728607177734	343.7683410644531	1053.31884765625	102.4203720092773	404.6678466796875	1041.151977539062	173.6057739257812	-78.35209655761723	721.9655151367188	336.9506835937499	-66.62526702880865	755.2965087890625	455.8743591308593	-0.695892214775111	778.4130859375	208.5265502929687	-16.06826400756837	760.6566772460938	84.29547882080074	-305.8067321777344	514.033447265625	424.7530822753905	-280.5506896972657	502.3194580078125	347.4361267089843	-180.2334594726563	366.6522827148438	429.1130981445312	-378.7881469726563	504.9797058105469	374.837921142578	139.4239196777343	376.6131591796875	138.5186309814453	-40.41029739379885	424.479248046875	180.7453002929687	-52.02611160278322	417.8445129394531	104.739517211914	-114.7915344238281	365.2043151855469	147.5618591308593	
980	8.158333333333333	139.6458740234374	1514.400390625	364.8958129882811	165.74072265625	1517.545166015625	240.2445983886718	-5.473538398742718	1550.794921875	340.7123107910155	15.02538681030271	1553.891723632812	211.1643829345702	-12.72022819519048	1382.799194335938	370.0534973144531	-2.321498155593891	1377.265380859375	152.7820281982421	9.741359710693326	1312.998046875	278.3359069824218	-48.055778503418	1220.083251953125	271.2428894042968	-221.8753051757813	1380.649047851562	276.1039733886718	-414.9641113281251	1104.342895507812	337.8765563964843	-418.7294006347656	1102.296752929688	217.0471801757811	-240.7471466064454	1069.4482421875	388.4293212890624	-239.4464569091797	1078.019897460938	163.9626922607421	136.7259674072265	1170.724487304688	493.6979675292968	298.4003601074218	1023.290832519531	409.9388122558594	321.1122741699218	1043.537231445312	469.5140075683594	400.7634582519531	1034.89111328125	404.5176696777344	88.72258758544916	1130.127563476562	468.6660766601562	103.8100891113281	1143.368041992188	92.37191009521479	157.138916015625	1176.98828125	71.92683410644526	319.5435180664062	1038.988403320312	165.0451507568359	344.0791320800781	1053.3095703125	102.3941802978515	404.9306640625	1040.93115234375	173.5614624023438	-73.7563858032227	729.6823120117188	337.1914672851562	-61.65827178955084	763.1053466796875	456.1907348632812	-7.008723735809352	766.8319091796875	207.628921508789	-22.72457695007325	748.7610473632812	83.50736236572261	-304.8382873535157	526.10498046875	424.7212524414061	-279.4398498535157	514.3528442382812	347.3565063476561	-178.9812927246094	380.3034362792969	430.1571655273438	-378.2452392578126	516.403564453125	374.938507080078	137.9947204589843	364.1336059570312	138.2189788818359	-42.03757095336916	412.5216979980469	180.2378997802734	-53.3659133911133	406.0616149902344	104.3011016845703	-116.2382736206055	354.218017578125	147.2723999023437	
981	8.166666666666666	139.7827148437499	1515.246948242188	365.3049926757811	166.0722351074218	1518.013427734375	240.6748504638671	-5.35457229614262	1551.250244140625	340.7424316406249	15.34397602081296	1553.93701171875	211.2280120849609	-12.35019874572759	1382.853149414062	370.6524963378906	-1.858374118804951	1377.505126953125	153.3289031982421	10.70815563201901	1313.478637695312	278.6838073730468	-47.24430465698246	1220.387573242188	271.9717102050781	-221.4036865234375	1380.700317382812	276.4168701171874	-414.5984802246094	1104.604125976562	337.5127563476561	-417.8761596679688	1102.488403320312	216.7019500732421	-240.7710113525391	1069.705444335938	388.6191101074218	-238.3602752685547	1077.654052734375	164.2826690673827	137.1191253662109	1170.874267578125	493.9163208007812	298.5784301757812	1023.288452148438	409.93896484375	321.3595886230468	1043.595703125	469.458984375	400.9252624511718	1034.826782226562	404.416259765625	89.07151031494135	1130.293212890625	468.8775024414062	104.3502883911133	1143.642944335938	92.78163146972651	157.6461639404297	1177.32177734375	72.1426162719726	319.8151550292969	1038.955810546875	165.0298614501953	344.4500427246094	1053.31298828125	102.371109008789	405.1617431640625	1040.751708984375	173.5433349609375	-69.23445129394536	737.5631713867188	337.4071044921874	-56.04580688476568	770.4959716796875	456.0742187499999	-13.70220756530764	755.817626953125	206.909683227539	-29.69998741149903	737.60107421875	82.89859771728511	-303.3092956542969	537.8233642578125	424.698028564453	-277.7612609863282	526.1360473632812	347.2716369628905	-176.8217468261719	392.6697692871094	429.3959655761719	-377.0705261230469	527.5841674804688	374.8711547851561	135.7894592285156	351.7743530273438	137.9395904541016	-44.2688903808594	401.037841796875	179.7287292480468	-55.42873001098634	394.6909484863281	103.9011535644531	-118.4553375244141	343.7409057617188	147.0158081054687	
982	8.175000000000001	140.0180053710937	1516.07275390625	365.651397705078	166.4059448242187	1518.42822265625	241.0448608398437	-5.207313537597698	1551.673583984375	340.7875366210936	15.64605426788327	1553.96337890625	211.3081970214843	-12.03290271759038	1382.992431640625	371.3625793457031	-1.463759660720844	1377.726318359375	153.9164123535155	11.50097560882565	1313.877807617188	279.1835632324218	-46.05024337768558	1220.720947265625	272.6194458007812	-220.900146484375	1380.729858398438	276.6856384277343	-414.2456665039063	1104.946899414062	337.1557312011718	-417.0554809570312	1102.776123046875	216.3794097900389	-240.8283386230469	1069.937866210938	388.819366455078	-237.3384552001953	1077.350219726562	164.5585784912109	137.4933776855468	1171.030151367188	494.1739196777343	298.7180480957031	1023.321594238281	409.9754638671875	321.5663146972656	1043.676391601562	469.4390869140625	401.0393676757812	1034.748046875	404.3672180175781	89.38091278076166	1130.506958007812	469.1991271972656	104.7986907958984	1143.929565429688	93.04681396484369	158.0782012939453	1177.595336914062	72.40660095214838	320.0772705078125	1038.970947265625	165.014404296875	344.7486572265625	1053.3642578125	102.3618240356445	405.3830261230469	1039.973388671875	173.6822662353516	-64.51317596435551	745.5577392578125	337.5928039550781	-51.90079116821295	779.041259765625	456.8349304199218	-20.94960975646975	745.46044921875	206.3320617675781	-36.96529006958009	727.2487182617188	82.43441772460933	-301.2488098144532	549.20068359375	424.6383056640624	-275.5704956054688	537.5927124023438	347.171417236328	-173.8385009765626	405.3285217285156	429.5107727050781	-375.2744750976563	538.4608154296875	374.7117919921874	133.4228363037109	340.4603881835938	137.9155578613281	-47.15067672729494	390.3327941894531	179.2983245849609	-57.89784622192384	384.2519226074219	103.3344955444336	-121.4689712524414	333.9136962890625	146.7818145751953	
